<mxfile host="app.diagrams.net" modified="2024-03-30T12:55:16.412Z" agent="Mozilla/5.0 (Windows NT 10.0; Win64; x64) AppleWebKit/537.36 (KHTML, like Gecko) Chrome/122.0.0.0 Safari/537.36" version="24.2.1" etag="XzKh3sJfkr8NQV0z9bOv" type="github">
  <diagram name="Page-1" id="TZsXuNGQr2sjFzw6E-im">
    <mxGraphModel>
      <root>
        <mxCell id="0" />
        <mxCell id="1" parent="0" />
      </root>
    </mxGraphModel>
  </diagram>
</mxfile>
